<?xml version="1.0" encoding="UTF-8"?>
<svg xmlns="http://www.w3.org/2000/svg" xmlns:xlink="http://www.w3.org/1999/xlink" width="535pt" height="207pt" viewBox="0 0 535 207" version="1.1">
<g id="surface1">
<path style=" stroke:none;fill-rule:nonzero;fill:rgb(0%,54.901123%,81.959534%);fill-opacity:1;" d="M 47.371094 68.777344 L 63.964844 68.777344 C 64.121094 72.136719 65.253906 74.644531 67.398438 76.28125 C 69.527344 77.917969 72.726563 78.746094 77.003906 78.746094 C 80.242188 78.746094 82.761719 78.164063 84.535156 77.003906 C 86.3125 75.867188 87.191406 74.230469 87.191406 72.113281 C 87.191406 69.132813 83.871094 66.871094 77.238281 65.382813 C 74.523438 64.78125 72.375 64.242188 70.777344 63.804688 C 62.675781 61.609375 57.074219 59.039063 53.929688 56.035156 C 50.789063 53.050781 49.207031 48.988281 49.207031 43.894531 C 49.207031 37.136719 51.511719 31.789063 56.097656 27.855469 C 60.683594 23.898438 66.910156 21.929688 74.757813 21.929688 C 83.074219 21.929688 89.613281 23.898438 94.355469 27.8125 C 99.097656 31.75 101.617188 37.261719 101.929688 44.390625 L 85.746094 44.390625 C 85.628906 41.59375 84.632813 39.4375 82.742188 37.882813 C 80.867188 36.351563 78.230469 35.585938 74.875 35.585938 C 71.714844 35.585938 69.371094 36.082031 67.828125 37.097656 C 66.285156 38.113281 65.507813 39.625 65.507813 41.65625 C 65.507813 44.285156 69.644531 46.605469 77.917969 48.636719 C 79.8125 49.074219 81.316406 49.445313 82.429688 49.734375 C 90.703125 51.789063 96.363281 54.273438 99.390625 57.195313 C 102.414063 60.097656 103.9375 64.199219 103.9375 69.503906 C 103.9375 77.003906 101.460938 82.703125 96.480469 86.640625 C 91.503906 90.558594 84.261719 92.527344 74.777344 92.527344 C 66.1875 92.527344 59.472656 90.472656 54.632813 86.390625 C 49.792969 82.308594 47.371094 76.675781 47.371094 69.503906 L 47.371094 68.777344 "/>
<path style=" stroke:none;fill-rule:nonzero;fill:rgb(0%,54.901123%,81.959534%);fill-opacity:1;" d="M 155.269531 70.25 L 171.859375 70.25 C 170.183594 77.210938 166.804688 82.660156 161.710938 86.597656 C 156.617188 90.558594 150.410156 92.527344 143.089844 92.527344 C 134.09375 92.527344 126.96875 89.3125 121.699219 82.910156 C 116.445313 76.488281 113.8125 67.804688 113.8125 56.824219 C 113.8125 46.027344 116.40625 37.511719 121.582031 31.273438 C 126.773438 25.035156 133.859375 21.929688 142.855469 21.929688 C 152.402344 21.929688 159.757813 24.996094 164.953125 31.128906 C 170.125 37.261719 172.71875 45.984375 172.71875 57.320313 C 172.71875 58.585938 172.71875 59.515625 172.699219 60.160156 C 172.679688 60.78125 172.621094 61.382813 172.542969 61.941406 L 131.027344 61.941406 C 131.261719 67.121094 132.453125 71.015625 134.601563 73.648438 C 136.746094 76.28125 139.851563 77.585938 143.890625 77.585938 C 146.761719 77.585938 149.101563 76.984375 150.917969 75.804688 C 152.753906 74.601563 154.195313 72.757813 155.269531 70.25 Z M 131.027344 50.335938 L 155.503906 50.335938 C 155.347656 45.882813 154.234375 42.503906 152.164063 40.164063 C 150.078125 37.84375 147.09375 36.683594 143.207031 36.683594 C 139.597656 36.683594 136.746094 37.863281 134.65625 40.203125 C 132.589844 42.546875 131.378906 45.921875 131.027344 50.335938 "/>
<path style=" stroke:none;fill-rule:nonzero;fill:rgb(0%,54.901123%,81.959534%);fill-opacity:1;" d="M 242.984375 0.875 L 242.984375 90.285156 L 227.214844 90.285156 L 227.214844 81.355469 C 224.8125 85.210938 222.101563 88.027344 219.113281 89.832031 C 216.128906 91.632813 212.59375 92.527344 208.554688 92.527344 C 200.902344 92.527344 194.695313 89.3125 189.953125 82.871094 C 185.210938 76.445313 182.828125 68.011719 182.828125 57.570313 C 182.828125 47.042969 185.210938 38.484375 189.953125 31.914063 C 194.695313 25.347656 200.824219 22.054688 208.339844 22.054688 C 212.339844 22.054688 215.914063 22.945313 219.054688 24.726563 C 222.195313 26.507813 224.8125 29.097656 226.863281 32.496094 L 226.863281 0.875 Z M 199.476563 56.84375 C 199.476563 63.515625 200.667969 68.613281 203.03125 72.113281 C 205.390625 75.617188 208.789063 77.359375 213.257813 77.359375 C 217.667969 77.359375 221.046875 75.617188 223.367188 72.136719 C 225.691406 68.65625 226.863281 63.558594 226.863281 56.84375 C 226.863281 50.605469 225.652344 45.800781 223.214844 42.421875 C 220.773438 39.042969 217.339844 37.34375 212.90625 37.34375 C 208.75 37.34375 205.488281 39.085938 203.089844 42.546875 C 200.6875 46.007813 199.476563 50.773438 199.476563 56.84375 "/>
<path style=" stroke:none;fill-rule:nonzero;fill:rgb(0%,54.901123%,81.959534%);fill-opacity:1;" d="M 295.703125 82.101563 C 293.59375 85.523438 290.863281 88.152344 287.464844 89.957031 C 284.070313 91.757813 280.128906 92.648438 275.617188 92.648438 C 269.585938 92.648438 264.960938 90.828125 261.699219 87.179688 C 258.441406 83.53125 256.800781 78.351563 256.800781 71.640625 C 256.800781 65.402344 258.421875 60.65625 261.679688 57.382813 C 264.941406 54.089844 270.328125 51.851563 277.84375 50.628906 C 279.5625 50.359375 281.804688 50.027344 284.597656 49.675781 C 291.660156 48.699219 295.175781 46.523438 295.175781 43.167969 C 295.175781 40.496094 294.394531 38.589844 292.832031 37.429688 C 291.273438 36.289063 288.65625 35.707031 285.007813 35.707031 C 281.648438 35.707031 279.070313 36.410156 277.277344 37.820313 C 275.480469 39.25 274.582031 41.261719 274.582031 43.894531 L 274.582031 44.867188 L 259.027344 44.867188 L 259.027344 43.644531 C 259.027344 36.890625 261.269531 31.585938 265.78125 27.730469 C 270.269531 23.855469 276.496094 21.929688 284.421875 21.929688 C 293.105469 21.929688 299.78125 23.523438 304.40625 26.714844 C 309.035156 29.925781 311.355469 34.527344 311.355469 40.558594 L 311.355469 78.082031 C 311.355469 80.839844 311.628906 82.890625 312.15625 84.257813 C 312.683594 85.605469 313.582031 86.621094 314.851563 87.304688 L 314.851563 90.285156 L 297.519531 90.285156 C 296.953125 89.148438 296.523438 87.90625 296.210938 86.515625 C 295.898438 85.148438 295.742188 83.675781 295.703125 82.101563 Z M 295.410156 57.796875 C 292.695313 59.144531 289.574219 60.222656 286.058594 61.027344 C 282.527344 61.835938 280.691406 62.253906 280.59375 62.292969 C 277.648438 63.183594 275.597656 64.304688 274.425781 65.628906 C 273.273438 66.976563 272.691406 68.820313 272.691406 71.160156 C 272.691406 73.585938 273.433594 75.535156 274.914063 76.964844 C 276.417969 78.394531 278.410156 79.117188 280.925781 79.117188 C 285.4375 79.117188 288.96875 77.773438 291.546875 75.078125 C 294.121094 72.386719 295.410156 68.71875 295.410156 64.054688 L 295.410156 57.796875 "/>
<path style=" stroke:none;fill-rule:nonzero;fill:rgb(0%,54.901123%,81.959534%);fill-opacity:1;" d="M 371.960938 57.671875 C 371.960938 51.042969 370.769531 45.964844 368.40625 42.464844 C 366.046875 38.960938 362.628906 37.222656 358.121094 37.222656 C 353.710938 37.222656 350.332031 38.960938 348.03125 42.441406 C 345.726563 45.921875 344.574219 51 344.574219 57.671875 C 344.574219 63.910156 345.785156 68.738281 348.203125 72.136719 C 350.625 75.535156 354.039063 77.234375 358.472656 77.234375 C 362.667969 77.234375 365.949219 75.492188 368.347656 72.011719 C 370.75 68.53125 371.960938 63.742188 371.960938 57.671875 Z M 328.394531 116.75 L 328.394531 24.289063 L 344.222656 24.289063 L 344.222656 33.222656 C 346.625 29.324219 349.316406 26.507813 352.265625 24.726563 C 355.214844 22.945313 358.707031 22.054688 362.707031 22.054688 C 370.359375 22.054688 376.585938 25.265625 381.347656 31.667969 C 386.109375 38.089844 388.492188 46.523438 388.492188 56.945313 C 388.492188 67.515625 386.109375 76.09375 381.347656 82.660156 C 376.585938 89.230469 370.4375 92.527344 362.921875 92.527344 C 358.960938 92.527344 355.425781 91.632813 352.324219 89.851563 C 349.21875 88.070313 346.625 85.480469 344.574219 82.082031 L 344.574219 116.75 L 328.394531 116.75 "/>
<path style=" stroke:none;fill-rule:nonzero;fill:rgb(0%,54.901123%,81.959534%);fill-opacity:1;" d="M 437.617188 82.101563 C 435.511719 85.523438 432.777344 88.152344 429.382813 89.957031 C 425.984375 91.757813 422.042969 92.648438 417.535156 92.648438 C 411.503906 92.648438 406.875 90.828125 403.617188 87.179688 C 400.355469 83.53125 398.71875 78.351563 398.71875 71.640625 C 398.71875 65.402344 400.335938 60.65625 403.597656 57.382813 C 406.855469 54.089844 412.242188 51.851563 419.757813 50.628906 C 421.476563 50.359375 423.722656 50.027344 426.511719 49.675781 C 433.578125 48.699219 437.089844 46.523438 437.089844 43.167969 C 437.089844 40.496094 436.3125 38.589844 434.75 37.429688 C 433.1875 36.289063 430.570313 35.707031 426.921875 35.707031 C 423.566406 35.707031 420.988281 36.410156 419.191406 37.820313 C 417.398438 39.25 416.5 41.261719 416.5 43.894531 L 416.5 44.867188 L 400.941406 44.867188 L 400.941406 43.644531 C 400.941406 36.890625 403.1875 31.585938 407.695313 27.730469 C 412.183594 23.855469 418.410156 21.929688 426.335938 21.929688 C 435.023438 21.929688 441.699219 23.523438 446.324219 26.714844 C 450.949219 29.925781 453.273438 34.527344 453.273438 40.558594 L 453.273438 78.082031 C 453.273438 80.839844 453.546875 82.890625 454.074219 84.257813 C 454.601563 85.605469 455.496094 86.621094 456.765625 87.304688 L 456.765625 90.285156 L 439.433594 90.285156 C 438.867188 89.148438 438.4375 87.90625 438.125 86.515625 C 437.8125 85.148438 437.65625 83.675781 437.617188 82.101563 Z M 437.324219 57.796875 C 434.613281 59.144531 431.488281 60.222656 427.976563 61.027344 C 424.441406 61.835938 422.609375 62.253906 422.511719 62.292969 C 419.5625 63.183594 417.515625 64.304688 416.34375 65.628906 C 415.191406 66.976563 414.605469 68.820313 414.605469 71.160156 C 414.605469 73.585938 415.347656 75.535156 416.828125 76.964844 C 418.335938 78.394531 420.324219 79.117188 422.84375 79.117188 C 427.351563 79.117188 430.882813 77.773438 433.460938 75.078125 C 436.039063 72.386719 437.324219 68.71875 437.324219 64.054688 L 437.324219 57.796875 "/>
<path style=" stroke:none;fill-rule:nonzero;fill:rgb(0%,54.901123%,81.959534%);fill-opacity:1;" d="M 470.523438 90.285156 L 470.523438 0.875 L 487.175781 0.875 L 487.175781 90.285156 L 470.523438 90.285156 "/>
<path style="fill:none;stroke-width:8.51908;stroke-linecap:butt;stroke-linejoin:miter;stroke:rgb(0%,54.901123%,81.959534%);stroke-opacity:1;stroke-miterlimit:22.9256;" d="M -1383.766695 473.185701 L -1383.766695 638.939215 C -1350.135513 640.499983 -1325.029445 651.776528 -1308.644021 673.237082 C -1292.258596 694.50254 -1283.968119 726.459255 -1283.968119 769.185267 C -1283.968119 801.532174 -1289.755811 826.699551 -1301.409406 844.414263 C -1312.789259 862.167994 -1329.174684 870.947311 -1350.331043 870.947311 C -1380.208047 870.947311 -1402.811329 837.781001 -1417.788937 771.526418 C -1423.772158 744.408082 -1429.16879 722.947528 -1433.548665 706.98868 C -1455.526251 626.062883 -1481.258015 570.109366 -1511.330548 538.698919 C -1541.207552 507.327491 -1581.877818 491.52472 -1632.872074 491.52472 C -1700.525497 491.52472 -1754.02254 514.546041 -1793.441413 560.354569 C -1833.055816 606.163096 -1852.765253 668.359683 -1852.765253 746.749233 C -1852.765253 829.821086 -1833.055816 895.139208 -1793.871579 942.508503 C -1754.452706 989.877798 -1699.274105 1015.045175 -1627.905609 1018.127691 L -1627.905609 856.510211 C -1655.905523 855.339636 -1677.492049 845.389742 -1693.056247 826.504455 C -1708.385808 807.775244 -1716.050589 781.437292 -1716.050589 747.919809 C -1716.050589 716.314266 -1711.084124 692.941772 -1700.916558 677.529193 C -1690.748991 662.116613 -1675.614959 654.312775 -1655.279826 654.312775 C -1628.961472 654.312775 -1605.693387 695.673115 -1585.39736 778.315757 C -1581.017485 797.240064 -1577.302413 812.262451 -1574.408567 823.38292 C -1553.838798 906.025562 -1528.967366 962.564366 -1499.716059 992.804237 C -1470.660282 1023.005089 -1429.598956 1038.222573 -1376.492974 1038.222573 C -1301.409406 1038.222573 -1244.353716 1013.484407 -1204.934842 963.734942 C -1165.711499 914.024495 -1146.002063 841.682919 -1146.002063 746.944329 C -1146.002063 661.141133 -1166.571832 594.067148 -1207.437628 545.722373 C -1248.303424 497.377598 -1304.694312 473.185701 -1376.492974 473.185701 Z M -1383.766695 473.185701 " transform="matrix(0,0.0998887,0.100111,0,0,207)"/>
<path style="fill:none;stroke-width:8.51908;stroke-linecap:butt;stroke-linejoin:miter;stroke:rgb(0%,54.901123%,81.959534%);stroke-opacity:1;stroke-miterlimit:22.9256;" d="M -1369.023723 1550.973732 L -1369.023723 1716.688226 C -1299.336787 1699.948994 -1244.744776 1666.197396 -1205.365009 1615.316374 C -1165.711499 1564.435352 -1146.002063 1502.433861 -1146.002063 1429.311901 C -1146.002063 1339.411691 -1178.186321 1268.24069 -1242.281096 1215.603805 C -1306.571401 1163.162015 -1393.504095 1136.863082 -1503.431131 1136.863082 C -1611.520184 1136.863082 -1696.771319 1162.771823 -1759.223641 1214.472248 C -1821.675963 1266.32875 -1852.765253 1337.070539 -1852.765253 1426.97075 C -1852.765253 1522.294628 -1822.067023 1595.806779 -1760.670564 1647.663281 C -1699.274105 1699.363706 -1611.911245 1725.272448 -1498.464666 1725.272448 C -1485.794314 1725.272448 -1476.48708 1725.272448 -1470.034586 1725.077352 C -1463.816728 1724.882256 -1457.7944 1724.296968 -1452.202239 1723.516584 L -1452.202239 1308.820647 C -1400.347649 1311.161798 -1361.358943 1323.06265 -1335.001482 1344.484185 C -1308.644021 1365.944739 -1295.582608 1396.964994 -1295.582608 1437.310835 C -1295.582608 1465.950919 -1301.604936 1489.362433 -1313.414956 1507.506355 C -1325.459612 1525.845374 -1343.917655 1540.243455 -1369.023723 1550.973732 Z M -1568.386239 1308.820647 L -1568.386239 1553.314883 C -1612.967107 1551.754115 -1646.793819 1540.633647 -1670.218328 1519.953477 C -1693.447307 1499.11723 -1705.061796 1469.267551 -1705.061796 1430.482477 C -1705.061796 1394.428747 -1693.251777 1365.944739 -1669.827268 1345.108492 C -1646.363653 1324.428322 -1612.576047 1312.332374 -1568.386239 1308.820647 Z M -1568.386239 1308.820647 " transform="matrix(0,0.0998887,0.100111,0,0,207)"/>
<path style="fill:none;stroke-width:8.51908;stroke-linecap:butt;stroke-linejoin:miter;stroke:rgb(0%,54.901123%,81.959534%);stroke-opacity:1;stroke-miterlimit:22.9256;" d="M -2063.546728 2427.149614 L -1168.409815 2427.149614 L -1168.409815 2269.629149 L -1257.845294 2269.629149 C -1219.247648 2245.632348 -1191.052204 2218.514012 -1172.98522 2188.703352 C -1154.957343 2158.853672 -1146.002063 2123.580326 -1146.002063 2083.234485 C -1146.002063 2006.795894 -1178.186321 1944.794403 -1242.672157 1897.425108 C -1307.001568 1850.055813 -1391.431476 1826.254108 -1495.961881 1826.254108 C -1601.352618 1826.254108 -1687.033919 1850.055813 -1752.771147 1897.425108 C -1818.547481 1944.794403 -1851.51386 2006.01551 -1851.51386 2081.088429 C -1851.51386 2121.044079 -1842.597686 2156.746636 -1824.765339 2188.118064 C -1806.932991 2219.489492 -1781.005697 2245.632348 -1746.983455 2266.117422 L -2063.546728 2266.117422 Z M -1503.235601 1992.55389 C -1436.442511 1992.55389 -1385.409148 2004.454743 -1350.331043 2028.022333 C -1315.292045 2051.628942 -1297.850758 2085.575636 -1297.850758 2130.213588 C -1297.850758 2174.266252 -1315.292045 2208.01785 -1350.135513 2231.195248 C -1384.978982 2254.411666 -1436.012344 2266.117422 -1503.235601 2266.117422 C -1565.687923 2266.117422 -1613.788334 2254.021474 -1647.615046 2229.634481 C -1681.441757 2205.286507 -1698.452878 2170.949621 -1698.452878 2126.701861 C -1698.452878 2085.185444 -1681.011591 2052.604422 -1646.363653 2028.64664 C -1611.715715 2004.649839 -1564.006364 1992.55389 -1503.235601 1992.55389 Z M -1503.235601 1992.55389 " transform="matrix(0,0.0998887,0.100111,0,0,207)"/>
<path style="fill:none;stroke-width:8.51908;stroke-linecap:butt;stroke-linejoin:miter;stroke:rgb(0%,54.901123%,81.959534%);stroke-opacity:1;stroke-miterlimit:22.9256;" d="M -1250.376044 2953.752585 C -1216.119166 2932.682223 -1189.800811 2905.40781 -1171.733827 2871.461116 C -1153.70595 2837.514421 -1144.789776 2798.14406 -1144.789776 2753.115916 C -1144.789776 2692.870289 -1163.013184 2646.67157 -1199.538211 2614.090547 C -1236.063238 2581.548544 -1287.917828 2565.160484 -1355.101979 2565.160484 C -1417.5543 2565.160484 -1465.068121 2581.353448 -1497.83897 2613.895451 C -1530.805349 2646.476474 -1553.213101 2700.283935 -1565.453287 2775.356854 C -1568.151603 2792.486278 -1571.475615 2814.922311 -1574.995157 2842.782012 C -1584.771663 2913.367724 -1606.553719 2948.484994 -1640.145795 2948.484994 C -1666.894316 2948.484994 -1685.978056 2940.681156 -1697.592546 2925.073481 C -1709.011505 2909.465805 -1714.838303 2883.361968 -1714.838303 2846.879027 C -1714.838303 2813.361544 -1707.760112 2787.608879 -1693.681943 2769.699072 C -1679.369138 2751.750245 -1659.229535 2742.775831 -1632.872074 2742.775831 L -1623.134674 2742.775831 L -1623.134674 2587.401422 L -1635.37486 2587.401422 C -1702.989177 2587.401422 -1756.095159 2609.798436 -1794.692806 2654.82658 C -1833.485982 2699.698647 -1852.765253 2761.895234 -1852.765253 2841.065168 C -1852.765253 2927.804824 -1836.809995 2994.488618 -1804.860372 3040.687337 C -1772.71522 3086.925076 -1726.648322 3110.102474 -1666.307725 3110.102474 L -1290.616143 3110.102474 C -1263.00729 3110.102474 -1242.476626 3112.833817 -1228.789518 3118.101407 C -1215.297939 3123.368998 -1205.130373 3132.343411 -1198.286818 3145.024648 L -1168.409815 3145.024648 L -1168.409815 2971.857488 C -1179.828774 2966.238725 -1192.26449 2961.946614 -1206.186235 2958.825079 C -1219.873344 2955.703544 -1234.616315 2954.142777 -1250.376044 2953.752585 Z M -1493.693731 2950.826145 C -1480.202152 2923.707809 -1469.40889 2892.531478 -1461.313942 2857.414208 C -1453.258101 2822.140861 -1449.073757 2803.801842 -1448.682696 2802.826363 C -1439.766523 2773.405894 -1428.543093 2752.92082 -1415.286151 2741.215064 C -1401.794572 2729.704403 -1383.336529 2723.851525 -1359.872914 2723.851525 C -1335.627178 2723.851525 -1316.113272 2731.265171 -1301.800466 2746.092462 C -1287.487661 2761.11485 -1280.253047 2780.975617 -1280.253047 2806.142994 C -1280.253047 2851.171138 -1293.705519 2886.483503 -1320.688676 2912.197149 C -1347.632728 2937.949813 -1384.353285 2950.826145 -1431.045879 2950.826145 Z M -1493.693731 2950.826145 " transform="matrix(0,0.0998887,0.100111,0,0,207)"/>
<path style="fill:none;stroke-width:8.51908;stroke-linecap:butt;stroke-linejoin:miter;stroke:rgb(0%,54.901123%,81.959534%);stroke-opacity:1;stroke-miterlimit:22.9256;" d="M -1494.945124 3715.446167 C -1561.308048 3715.446167 -1612.145881 3703.584334 -1647.184879 3679.977725 C -1682.262984 3656.371116 -1699.665165 3622.268345 -1699.665165 3577.240201 C -1699.665165 3533.187537 -1682.262984 3499.435939 -1647.419515 3476.414617 C -1612.576047 3453.432315 -1561.738215 3441.921654 -1494.945124 3441.921654 C -1432.492802 3441.921654 -1384.157755 3454.017603 -1350.135513 3478.2095 C -1316.113272 3502.362378 -1299.102151 3536.465149 -1299.102151 3580.751928 C -1299.102151 3622.658537 -1316.543438 3655.395636 -1351.386906 3679.392437 C -1386.230374 3703.389238 -1434.174361 3715.446167 -1494.945124 3715.446167 Z M -903.505602 3280.304175 L -1829.145214 3280.304175 L -1829.145214 3438.409927 L -1739.709734 3438.409927 C -1778.737547 3462.406729 -1806.932991 3489.29095 -1824.765339 3518.750437 C -1842.597686 3548.170905 -1851.51386 3583.093079 -1851.51386 3623.048728 C -1851.51386 3699.487319 -1819.368707 3761.683906 -1755.273932 3809.248297 C -1690.983627 3856.812688 -1606.553719 3880.614393 -1502.218845 3880.614393 C -1396.397941 3880.614393 -1310.52111 3856.812688 -1244.744776 3809.248297 C -1179.007548 3761.683906 -1146.002063 3700.267703 -1146.002063 3625.194784 C -1146.002063 3585.629326 -1154.957343 3550.316961 -1172.78969 3519.335725 C -1190.622037 3488.31547 -1216.549332 3462.406729 -1250.571574 3441.921654 L -903.505602 3441.921654 Z M -903.505602 3280.304175 " transform="matrix(0,0.0998887,0.100111,0,0,207)"/>
<path style="fill:none;stroke-width:8.51908;stroke-linecap:butt;stroke-linejoin:miter;stroke:rgb(0%,54.901123%,81.959534%);stroke-opacity:1;stroke-miterlimit:22.9256;" d="M -1250.376044 4371.31971 C -1216.119166 4350.288367 -1189.800811 4322.974935 -1171.733827 4289.028241 C -1153.70595 4255.120566 -1144.789776 4215.750205 -1144.789776 4170.683042 C -1144.789776 4110.437414 -1163.013184 4064.238695 -1199.538211 4031.696692 C -1236.063238 3999.115669 -1287.917828 3982.72761 -1355.101979 3982.72761 C -1417.5543 3982.72761 -1465.068121 3998.920573 -1497.83897 4031.462577 C -1530.805349 4064.043599 -1553.213101 4117.85106 -1565.453287 4192.923979 C -1568.151603 4210.092422 -1571.475615 4232.489437 -1574.995157 4260.388157 C -1584.771663 4330.973869 -1606.553719 4366.05212 -1640.145795 4366.05212 C -1666.894316 4366.05212 -1685.978056 4358.248282 -1697.592546 4342.640606 C -1709.011505 4327.07195 -1714.838303 4300.929094 -1714.838303 4264.485171 C -1714.838303 4230.928669 -1707.760112 4205.215024 -1693.681943 4187.266197 C -1679.369138 4169.31737 -1659.229535 4160.342957 -1632.872074 4160.342957 L -1623.134674 4160.342957 L -1623.134674 4004.968547 L -1635.37486 4004.968547 C -1702.989177 4004.968547 -1756.095159 4027.404581 -1794.692806 4072.432725 C -1833.485982 4117.265772 -1852.765253 4179.462359 -1852.765253 4258.632293 C -1852.765253 4345.37195 -1836.809995 4412.055743 -1804.860372 4458.293482 C -1772.71522 4504.492201 -1726.648322 4527.708618 -1666.307725 4527.708618 L -1290.616143 4527.708618 C -1263.00729 4527.708618 -1242.476626 4530.400942 -1228.789518 4535.668533 C -1215.297939 4540.936123 -1205.130373 4549.910537 -1198.286818 4562.591773 L -1168.409815 4562.591773 L -1168.409815 4389.463633 C -1179.828774 4383.805851 -1192.26449 4379.51374 -1206.186235 4376.392205 C -1219.873344 4373.27067 -1234.616315 4371.709902 -1250.376044 4371.31971 Z M -1493.693731 4368.393271 C -1480.202152 4341.313954 -1469.40889 4310.098603 -1461.313942 4274.981333 C -1453.258101 4239.707987 -1449.073757 4221.407987 -1448.682696 4220.393488 C -1439.766523 4190.97302 -1428.543093 4170.487946 -1415.286151 4158.782189 C -1401.794572 4147.310548 -1383.336529 4141.457669 -1359.872914 4141.457669 C -1335.627178 4141.457669 -1316.113272 4148.871315 -1301.800466 4163.659588 C -1287.487661 4178.681976 -1280.253047 4198.581762 -1280.253047 4223.749138 C -1280.253047 4268.777282 -1293.705519 4304.050629 -1320.688676 4329.803293 C -1347.632728 4355.516939 -1384.353285 4368.393271 -1431.045879 4368.393271 Z M -1493.693731 4368.393271 " transform="matrix(0,0.0998887,0.100111,0,0,207)"/>
<path style="fill:none;stroke-width:8.51908;stroke-linecap:butt;stroke-linejoin:miter;stroke:rgb(0%,54.901123%,81.959534%);stroke-opacity:1;stroke-miterlimit:22.9256;" d="M -1168.409815 4700.017356 L -2063.546728 4700.017356 L -2063.546728 4866.317138 L -1168.409815 4866.317138 Z M -1168.409815 4700.017356 " transform="matrix(0,0.0998887,0.100111,0,0,207)"/>
<path style=" stroke:none;fill-rule:evenodd;fill:rgb(0%,54.901123%,81.959534%);fill-opacity:1;" d="M 0.425781 142.84375 L 0.425781 164.03125 C 7.324219 158.515625 64.398438 123.050781 138.90625 122.703125 C 213.417969 122.359375 305.496094 165.820313 376.214844 163.75 C 446.933594 161.679688 475.898438 139.601563 489.003906 128.914063 L 489.003906 108.21875 C 478.71875 118.042969 423.472656 153.054688 364.484375 154.089844 C 305.492188 155.125 179.964844 109.597656 117.34375 111.148438 C 54.726563 112.703125 16.277344 134.058594 0.425781 142.84375 "/>
<path style="fill:none;stroke-width:8.5365;stroke-linecap:butt;stroke-linejoin:miter;stroke:rgb(0%,54.901123%,81.959534%);stroke-opacity:1;stroke-miterlimit:22.9256;" d="M 4.257813 641.5625 L 4.257813 429.6875 C 73.242188 484.84375 643.984375 839.492188 1389.0625 842.96875 C 2134.179688 846.40625 3054.960938 411.796875 3762.148438 432.5 C 4469.335938 453.203125 4758.984375 673.984375 4890.039063 780.859375 L 4890.039063 987.8125 C 4787.1875 889.570313 4234.726563 539.453125 3644.84375 529.101563 C 3054.921875 518.75 1799.648438 974.023438 1173.4375 958.515625 C 547.265625 942.96875 162.773438 729.414063 4.257813 641.5625 Z M 4.257813 641.5625 " transform="matrix(0.1,0,0,-0.1,0,207)"/>
<path style=" stroke:none;fill-rule:evenodd;fill:rgb(30.078125%,68.466187%,87.385559%);fill-opacity:1;" d="M 23.070313 163.539063 L 23.070313 184.726563 C 29.96875 179.210938 87.042969 143.746094 161.550781 143.398438 C 236.0625 143.054688 328.140625 186.515625 398.859375 184.445313 C 469.578125 182.375 498.542969 160.296875 511.644531 149.609375 L 511.644531 128.914063 C 501.359375 138.738281 446.117188 173.753906 387.128906 174.785156 C 328.136719 175.820313 202.605469 130.289063 139.988281 131.84375 C 77.371094 133.398438 38.921875 154.75 23.070313 163.539063 "/>
<path style="fill:none;stroke-width:8.5365;stroke-linecap:butt;stroke-linejoin:miter;stroke:rgb(30.078125%,68.466187%,87.385559%);stroke-opacity:1;stroke-miterlimit:22.9256;" d="M 230.703125 434.609375 L 230.703125 222.734375 C 299.6875 277.890625 870.429688 632.539063 1615.507813 636.015625 C 2360.625 639.453125 3281.40625 204.84375 3988.59375 225.546875 C 4695.78125 246.25 4985.429688 467.03125 5116.445313 573.90625 L 5116.445313 780.859375 C 5013.59375 682.617188 4461.171875 332.460938 3871.289063 322.148438 C 3281.367188 311.796875 2026.054688 767.109375 1399.882813 751.5625 C 773.710938 736.015625 389.21875 522.5 230.703125 434.609375 Z M 230.703125 434.609375 " transform="matrix(0.1,0,0,-0.1,0,207)"/>
<path style=" stroke:none;fill-rule:evenodd;fill:rgb(60.011292%,81.965637%,92.785645%);fill-opacity:1;" d="M 45.714844 184.234375 L 45.714844 205.421875 C 52.609375 199.90625 109.6875 164.441406 184.195313 164.09375 C 258.703125 163.75 350.785156 207.210938 421.503906 205.140625 C 492.222656 203.070313 521.1875 180.992188 534.289063 170.304688 L 534.289063 149.605469 C 524.003906 159.433594 468.761719 194.449219 409.773438 195.480469 C 350.78125 196.515625 225.25 150.984375 162.632813 152.539063 C 100.015625 154.09375 61.566406 175.445313 45.714844 184.234375 "/>
<path style="fill:none;stroke-width:8.5365;stroke-linecap:butt;stroke-linejoin:miter;stroke:rgb(60.011292%,81.965637%,92.785645%);stroke-opacity:1;stroke-miterlimit:22.9256;" d="M 457.148438 227.65625 L 457.148438 15.78125 C 526.09375 70.9375 1096.875 425.585938 1841.953125 429.0625 C 2587.03125 432.5 3507.851563 -2.109375 4215.039063 18.59375 C 4922.226563 39.296875 5211.875 260.078125 5342.890625 366.953125 L 5342.890625 573.945313 C 5240.039063 475.664063 4687.617188 125.507813 4097.734375 115.195313 C 3507.8125 104.84375 2252.5 560.15625 1626.328125 544.609375 C 1000.15625 529.0625 615.664063 315.546875 457.148438 227.65625 Z M 457.148438 227.65625 " transform="matrix(0.1,0,0,-0.1,0,207)"/>
</g>
</svg>
